# xmcd CD database file
#
# Track frame offsets:
#	150
#	28330
#	54813
#	77273
#	102253
#	127093
#	155820
#	199653
#	235785
#
# Disc length: 3397 seconds
#
# Revision: 0
# Processed by: cddbd v1.5.2PL0 Copyright (c) Steve Scherf et al.
# Submitted via: CDex 1.70beta2
#
DISCID=6d0d4309
DTITLE=Oscar Peterson trio - At the Stratford Shakeaspearean Festival (1956)
DYEAR=1956
DGENRE=Jazz
TTITLE0=Falling in live with love
TTITLE1=How about you?
TTITLE2=Flamingo
TTITLE3=Swinging on a star
TTITLE4=Noreen's nocturne
TTITLE5=Gypsy in my soul
TTITLE6=How high the moon
TTITLE7=Love you madly
TTITLE8=52nd street theme
EXTD=YEAR: 1956
EXTT0=
EXTT1=
EXTT2=
EXTT3=
EXTT4=
EXTT5=
EXTT6=
EXTT7=
EXTT8=
PLAYORDER=
